<?xml version="1.0" encoding="utf-8"?>
<!-- Generator: Adobe Illustrator 22.0.1, SVG Export Plug-In . SVG Version: 6.00 Build 0)  -->
<svg version="1.1" id="Capa_1" xmlns="http://www.w3.org/2000/svg" xmlns:xlink="http://www.w3.org/1999/xlink" x="0px" y="0px"
	 viewBox="0 0 23.2 23.2" style="enable-background:new 0 0 23.2 23.2;" xml:space="preserve">
<style type="text/css">
	.st0{fill:#F7941D;}
	.st1{fill:#262A34;}
</style>
<g>
	<path class="st1" d="M22.8,22.2l-8.7-8.7c1.3-1.4,2-3.3,2-5.3c0-4.4-3.6-7.9-7.9-7.9c-4.4,0-7.9,3.6-7.9,7.9c0,4.4,3.6,7.9,7.9,7.9
		c2,0,3.9-0.8,5.3-2l8.7,8.7c0.1,0.1,0.2,0.1,0.3,0.1s0.2,0,0.3-0.1C23,22.7,23,22.4,22.8,22.2z M1.1,8.2c0-3.9,3.2-7.1,7.1-7.1
		c3.9,0,7.1,3.2,7.1,7.1s-3.2,7.1-7.1,7.1C4.3,15.3,1.1,12.1,1.1,8.2z"/>
	<path class="st1" d="M8.2,13.4C5.3,13.4,3,11.1,3,8.2C3,8.1,2.9,8,2.7,8S2.5,8.1,2.5,8.2c0,3.1,2.6,5.7,5.7,5.7
		c0.1,0,0.2-0.1,0.2-0.2S8.3,13.4,8.2,13.4z"/>
</g>
</svg>
