<?xml version="1.0" encoding="utf-8"?>
<!-- Generator: Adobe Illustrator 22.0.1, SVG Export Plug-In . SVG Version: 6.00 Build 0)  -->
<svg version="1.1" id="Capa_1" xmlns="http://www.w3.org/2000/svg" xmlns:xlink="http://www.w3.org/1999/xlink" x="0px" y="0px"
	 viewBox="0 0 23.2 23.2" style="enable-background:new 0 0 23.2 23.2;" xml:space="preserve">
<style type="text/css">
	.st0{fill:#3D3D3D;}
</style>
<g>
	<path class="st0" d="M22.8,22.2L12.5,11.9c0.5-0.7,0.8-1.5,0.8-2.3c0-1-0.4-1.9-1.1-2.7L11.3,6l2.3-2.3c0.7-0.7,0.7-1.8,0-2.5
		l-0.4-0.4c-0.7-0.7-1.8-0.7-2.5,0L8.4,3.1L6.3,1C6.1,0.8,5.9,0.8,5.7,1c-0.2,0.2-0.2,0.4,0,0.6l2.1,2.1L6,5.4l-2.1-2
		c-0.2-0.2-0.4-0.2-0.6,0C3.1,3.6,3.1,3.8,3.3,4l2.1,2L3.6,7.8l-2-2.1C1.4,5.5,1.2,5.5,1,5.7C0.8,5.9,0.8,6.1,1,6.3l2.1,2.1
		l-2.3,2.3c-0.7,0.7-0.7,1.8,0,2.5l0.4,0.4c0.3,0.3,0.8,0.5,1.3,0.5s0.9-0.2,1.3-0.5L6,11.3l0.9,0.9c0.7,0.7,1.7,1.1,2.7,1.1
		c0.8,0,1.7-0.3,2.3-0.8l10.3,10.3c0.1,0.1,0.2,0.1,0.3,0.1s0.2,0,0.3-0.1C23,22.7,23,22.4,22.8,22.2z M3.1,13c-0.4,0.4-1,0.4-1.3,0
		l-0.4-0.4c-0.4-0.4-0.4-1,0-1.3l9.9-9.9c0.2-0.2,0.4-0.3,0.7-0.3s0.5,0.1,0.7,0.3L13,1.8c0.4,0.4,0.4,1,0,1.3l-4.9,5l0,0l0,0
		L3.1,13z M7.5,11.6l-0.9-0.9L8.4,9l0.9,0.9c0,0,0.1,0.1,0.2,0.1s0.2,0,0.3-0.1c0.2-0.2,0.2-0.4,0-0.6L9,8.4l1.8-1.8l0.9,0.9
		c0.6,0.6,0.9,1.3,0.9,2.1s-0.3,1.5-0.9,2.1C10.5,12.7,8.6,12.7,7.5,11.6z"/>
	<path class="st0" d="M6.4,15.7c0-0.1-0.1-0.2-0.2-0.2H3.4c-0.1,0-0.2,0.1-0.2,0.2c0,0.1,0.1,0.2,0.2,0.2h2.7
		C6.3,15.9,6.4,15.8,6.4,15.7z"/>
	<path class="st0" d="M7.3,18.3l-1.9,1.9c-0.1,0.1-0.1,0.2,0,0.3c0,0,0.1,0.1,0.2,0.1s0.1,0,0.2-0.1l1.9-1.9c0.1-0.1,0.1-0.2,0-0.3
		S7.4,18.2,7.3,18.3z"/>
	<path class="st0" d="M10.2,19.6c-0.1,0-0.2,0.1-0.2,0.2v2.7c0,0.1,0.1,0.2,0.2,0.2s0.2-0.1,0.2-0.2v-2.7
		C10.5,19.7,10.4,19.6,10.2,19.6z"/>
	<path class="st0" d="M19.6,10.2c0,0.1,0.1,0.2,0.2,0.2h2.7c0.1,0,0.2-0.1,0.2-0.2c0-0.1-0.1-0.2-0.2-0.2h-2.7
		C19.8,10,19.6,10.1,19.6,10.2z"/>
	<path class="st0" d="M18.5,7.7c0.1,0,0.1,0,0.2-0.1l1.9-1.9c0.1-0.1,0.1-0.2,0-0.3c-0.1-0.1-0.2-0.1-0.3,0l-1.9,1.9
		C18.3,7.4,18.3,7.5,18.5,7.7C18.4,7.7,18.4,7.7,18.5,7.7z"/>
	<path class="st0" d="M15.8,6.3c0.1,0,0.2-0.1,0.2-0.2V3.3c0-0.1-0.1-0.2-0.2-0.2s-0.2,0.1-0.2,0.2V6C15.5,6.2,15.6,6.3,15.8,6.3z"
		/>
</g>
</svg>
