{
	"asset":{
		"generator":"Khronos glTF Blender I/O v3.5.30",
		"version":"2.0"
	},
	"scene":0,
	"scenes":[
		{
			"name":"Scene",
			"nodes":[
				0,
				1
			]
		}
	],
	"nodes":[
		{
			"mesh":0,
			"name":"Cube",
			"scale":[
				0.7726908922195435,
				0.7726908922195435,
				0.31067168712615967
			],
			"translation":[
				0.08698590844869614,
				2.098661422729492,
				0
			]
		},
		{
			"mesh":1,
			"name":"Cube.001",
			"scale":[
				0.7726908922195435,
				0.7726908922195435,
				0.31067168712615967
			],
			"translation":[
				0.08698590844869614,
				2.0991997718811035,
				0
			]
		}
	],
	"materials":[
		{
			"doubleSided":true,
			"name":"Material",
			"pbrMetallicRoughness":{
				"metallicFactor":0,
				"roughnessFactor":0
			}
		},
		{
			"doubleSided":true,
			"name":"Material.001",
			"pbrMetallicRoughness":{
				"baseColorFactor":[
					0,
					0.022320324555039406,
					0.018918918445706367,
					1
				],
				"metallicFactor":0,
				"roughnessFactor":0.5
			}
		}
	],
	"meshes":[
		{
			"name":"Cube",
			"primitives":[
				{
					"attributes":{
						"POSITION":0,
						"TEXCOORD_0":1,
						"NORMAL":2
					},
					"indices":3,
					"material":0
				},
				{
					"attributes":{
						"POSITION":4,
						"TEXCOORD_0":5,
						"NORMAL":6
					},
					"indices":7,
					"material":1
				}
			]
		},
		{
			"name":"Cube.001",
			"primitives":[
				{
					"attributes":{
						"POSITION":8,
						"TEXCOORD_0":9,
						"NORMAL":10
					},
					"indices":11,
					"material":0
				}
			]
		}
	],
	"accessors":[
		{
			"bufferView":0,
			"componentType":5126,
			"count":104,
			"max":[
				1.1578384637832642,
				1.699209213256836,
				1.0433785915374756
			],
			"min":[
				-1.1578383445739746,
				-1.233191728591919,
				-1.0433785915374756
			],
			"type":"VEC3"
		},
		{
			"bufferView":1,
			"componentType":5126,
			"count":104,
			"type":"VEC2"
		},
		{
			"bufferView":2,
			"componentType":5126,
			"count":104,
			"type":"VEC3"
		},
		{
			"bufferView":3,
			"componentType":5123,
			"count":450,
			"type":"SCALAR"
		},
		{
			"bufferView":4,
			"componentType":5126,
			"count":89,
			"max":[
				1.1578384637832642,
				1.699209213256836,
				1.0433785915374756
			],
			"min":[
				-1.1578383445739746,
				-1.233191728591919,
				-1.0433785915374756
			],
			"type":"VEC3"
		},
		{
			"bufferView":5,
			"componentType":5126,
			"count":89,
			"type":"VEC2"
		},
		{
			"bufferView":6,
			"componentType":5126,
			"count":89,
			"type":"VEC3"
		},
		{
			"bufferView":7,
			"componentType":5123,
			"count":306,
			"type":"SCALAR"
		},
		{
			"bufferView":8,
			"componentType":5126,
			"count":16,
			"max":[
				0.31500113010406494,
				-1.1299798488616943,
				0.864231288433075
			],
			"min":[
				0.08546896278858185,
				-2.343794584274292,
				-0.3333333134651184
			],
			"type":"VEC3"
		},
		{
			"bufferView":9,
			"componentType":5126,
			"count":16,
			"type":"VEC2"
		},
		{
			"bufferView":10,
			"componentType":5126,
			"count":16,
			"type":"VEC3"
		},
		{
			"bufferView":11,
			"componentType":5123,
			"count":84,
			"type":"SCALAR"
		}
	],
	"bufferViews":[
		{
			"buffer":0,
			"byteLength":1248,
			"byteOffset":0,
			"target":34962
		},
		{
			"buffer":0,
			"byteLength":832,
			"byteOffset":1248,
			"target":34962
		},
		{
			"buffer":0,
			"byteLength":1248,
			"byteOffset":2080,
			"target":34962
		},
		{
			"buffer":0,
			"byteLength":900,
			"byteOffset":3328,
			"target":34963
		},
		{
			"buffer":0,
			"byteLength":1068,
			"byteOffset":4228,
			"target":34962
		},
		{
			"buffer":0,
			"byteLength":712,
			"byteOffset":5296,
			"target":34962
		},
		{
			"buffer":0,
			"byteLength":1068,
			"byteOffset":6008,
			"target":34962
		},
		{
			"buffer":0,
			"byteLength":612,
			"byteOffset":7076,
			"target":34963
		},
		{
			"buffer":0,
			"byteLength":192,
			"byteOffset":7688,
			"target":34962
		},
		{
			"buffer":0,
			"byteLength":128,
			"byteOffset":7880,
			"target":34962
		},
		{
			"buffer":0,
			"byteLength":192,
			"byteOffset":8008,
			"target":34962
		},
		{
			"buffer":0,
			"byteLength":168,
			"byteOffset":8200,
			"target":34963
		}
	],
	"buffers":[
		{
			"byteLength":8368,
			"uri":"HumanForest.bin"
		}
	]
}
