<?xml version="1.0" encoding="utf-8"?>
<!-- Generator: Adobe Illustrator 22.0.1, SVG Export Plug-In . SVG Version: 6.00 Build 0)  -->
<svg version="1.1" id="Capa_1" xmlns="http://www.w3.org/2000/svg" xmlns:xlink="http://www.w3.org/1999/xlink" x="0px" y="0px"
	 viewBox="0 0 23.2 23.2" style="enable-background:new 0 0 23.2 23.2;" xml:space="preserve">
<style type="text/css">
	.st0{fill:#F7941D;}
</style>
<g>
	<path class="st0" d="M22.5,0.3H2c-1,0-1.8,0.8-1.8,1.8v20.5c0,0.2,0.2,0.4,0.4,0.4h19.1c0.2,0,0.4-0.2,0.4-0.4V3.4
		C20.2,3.2,20,3,19.8,3H3.9H2C1.5,3,1.1,2.6,1.1,2c0-0.5,0.4-0.9,0.9-0.9h20.1v18.7c0,0.2,0.2,0.4,0.4,0.4c0.2,0,0.4-0.2,0.4-0.4
		V0.7C22.9,0.4,22.7,0.3,22.5,0.3z M2,3.8h1.9h15.4v18.3H1.1V3.6C1.4,3.7,1.7,3.8,2,3.8z"/>
	<path class="st0" d="M4.8,7.7h10.9c0.1,0,0.2-0.1,0.2-0.2c0-0.1-0.1-0.2-0.2-0.2H4.8c-0.1,0-0.2,0.1-0.2,0.2
		C4.5,7.6,4.6,7.7,4.8,7.7z"/>
	<path class="st0" d="M4.8,10.5h10.9c0.1,0,0.2-0.1,0.2-0.2S15.8,10,15.7,10H4.8c-0.1,0-0.2,0.1-0.2,0.2S4.6,10.5,4.8,10.5z"/>
	<path class="st0" d="M4.8,13.2h10.9c0.1,0,0.2-0.1,0.2-0.2s-0.1-0.2-0.2-0.2H4.8c-0.1,0-0.2,0.1-0.2,0.2S4.6,13.2,4.8,13.2z"/>
	<path class="st0" d="M4.8,15.9h10.9c0.1,0,0.2-0.1,0.2-0.2s-0.1-0.2-0.2-0.2H4.8c-0.1,0-0.2,0.1-0.2,0.2S4.6,15.9,4.8,15.9z"/>
	<path class="st0" d="M4.8,18.7h10.9c0.1,0,0.2-0.1,0.2-0.2c0-0.1-0.1-0.2-0.2-0.2H4.8c-0.1,0-0.2,0.1-0.2,0.2
		C4.5,18.6,4.6,18.7,4.8,18.7z"/>
</g>
</svg>
