<?xml version="1.0" encoding="utf-8"?>
<!-- Generator: Adobe Illustrator 22.0.1, SVG Export Plug-In . SVG Version: 6.00 Build 0)  -->
<svg version="1.1" id="Capa_1" xmlns="http://www.w3.org/2000/svg" xmlns:xlink="http://www.w3.org/1999/xlink" x="0px" y="0px"
	 viewBox="0 0 23.2 23.2" style="enable-background:new 0 0 23.2 23.2;" xml:space="preserve">
<style type="text/css">
	.st0{fill:#F7941D;}
</style>
<g>
	<path class="st0" d="M7.8,15.5c0.5-0.5,0.8-1.1,0.8-1.9c0-1.4-1.1-2.5-2.5-2.5s-2.5,1.1-2.5,2.5c0,0.7,0.3,1.4,0.8,1.9
		c-2.5,0.7-4.3,3-4.3,5.7v1.4c0,0.2,0.2,0.4,0.4,0.4s0.4-0.2,0.4-0.4v-1.4c0-2.8,2.3-5,5-5s5,2.3,5,5v1.4c0,0.2,0.2,0.4,0.4,0.4
		c0.2,0,0.4-0.2,0.4-0.4v-1.4C12,18.5,10.2,16.2,7.8,15.5z M4.5,13.6c0-0.9,0.7-1.6,1.6-1.6s1.6,0.7,1.6,1.6c0,0.9-0.7,1.6-1.6,1.6
		S4.5,14.5,4.5,13.6z"/>
	<path class="st0" d="M18.7,4.6c0.5-0.5,0.8-1.1,0.8-1.9c0-1.4-1.1-2.5-2.5-2.5s-2.5,1.1-2.5,2.5c0,0.7,0.3,1.4,0.8,1.9
		c-2.5,0.7-4.3,3-4.3,5.7v1.4c0,0.2,0.2,0.4,0.4,0.4c0.2,0,0.4-0.2,0.4-0.4v-1.4c0-2.7,2.1-4.9,4.8-5v6.3c0,0.1,0.1,0.2,0.2,0.2
		c0.1,0,0.2-0.1,0.2-0.2V5.2c2.7,0.1,4.8,2.3,4.8,5v1.4c0,0.2,0.2,0.4,0.4,0.4c0.2,0,0.4-0.2,0.4-0.4v-1.4
		C22.9,7.6,21.1,5.3,18.7,4.6z M15.4,2.7c0-0.9,0.7-1.6,1.6-1.6c0.9,0,1.6,0.7,1.6,1.6c0,0.9-0.7,1.6-1.6,1.6
		C16.2,4.4,15.4,3.6,15.4,2.7z"/>
	<path class="st0" d="M7.7,18.3c-0.1-0.1-0.2-0.1-0.3,0L4.6,21c-0.1,0.1-0.1,0.2,0,0.3c0,0,0.1,0.1,0.2,0.1s0.1,0,0.2-0.1l2.7-2.7
		C7.8,18.5,7.8,18.4,7.7,18.3z"/>
	<path class="st0" d="M5.6,17.6c-0.1-0.1-0.2-0.1-0.3,0l-1.4,1.4c-0.1,0.1-0.1,0.2,0,0.3c0,0,0.1,0.1,0.2,0.1c0.1,0,0.1,0,0.2-0.1
		l1.4-1.4C5.7,17.8,5.7,17.7,5.6,17.6z"/>
	<path class="st0" d="M8,20.3l-1.4,1.4c-0.1,0.1-0.1,0.2,0,0.3c0,0,0.1,0.1,0.2,0.1s0.1,0,0.2-0.1l1.4-1.4c0.1-0.1,0.1-0.2,0-0.3
		C8.3,20.2,8.1,20.2,8,20.3z"/>
	<path class="st0" d="M15,7.3h-1.4c-0.1,0-0.2,0.1-0.2,0.2v0.7c0,0.5,0.4,0.9,0.9,0.9s0.9-0.4,0.9-0.9V7.5C15.2,7.4,15.1,7.3,15,7.3
		z M14.8,8.2c0,0.2-0.2,0.4-0.4,0.4c-0.2,0-0.4-0.2-0.4-0.4V7.7h0.9V8.2z"/>
</g>
</svg>
