<?xml version="1.0" encoding="utf-8"?>
<!-- Generator: Adobe Illustrator 22.0.1, SVG Export Plug-In . SVG Version: 6.00 Build 0)  -->
<svg version="1.1" id="Capa_1" xmlns="http://www.w3.org/2000/svg" xmlns:xlink="http://www.w3.org/1999/xlink" x="0px" y="0px"
	 viewBox="0 0 23.2 23.2" style="enable-background:new 0 0 23.2 23.2;" xml:space="preserve">
<style type="text/css">
	.st0{fill:#F7941D;}
</style>
<g>
	<path class="st0" d="M22.5,19.3h-1c-0.2-5-4.1-9.1-9.1-9.5c0-0.1,0.1-0.2,0.1-0.3c0-0.5-0.4-0.9-0.9-0.9c-0.5,0-0.9,0.4-0.9,0.9
		c0,0.1,0,0.2,0.1,0.3c-5,0.4-8.9,4.5-9.1,9.5h-1c-0.2,0-0.4,0.2-0.4,0.4v2.7c0,0.2,0.2,0.4,0.4,0.4h21.8c0.2,0,0.4-0.2,0.4-0.4
		v-2.7C22.9,19.5,22.7,19.3,22.5,19.3z M11.1,9.5c0-0.2,0.2-0.4,0.4-0.4S12,9.2,12,9.5c0,0.1,0,0.2-0.1,0.3c-0.1,0-0.2,0-0.4,0
		c-0.1,0-0.2,0-0.4,0C11.2,9.7,11.1,9.6,11.1,9.5z M11.6,10.6c4.9,0,8.9,3.9,9.1,8.7H2.5C2.7,14.4,6.7,10.6,11.6,10.6z M22.1,22h-21
		v-1.9h21V22z"/>
	<path class="st0" d="M6.1,10.4c0.1,0,0.2-0.1,0.2-0.2V4.7c0-0.1-0.1-0.2-0.2-0.2C6,4.4,5.9,4.6,5.9,4.7v5.5
		C5.9,10.3,6,10.4,6.1,10.4z"/>
	<path class="st0" d="M17.1,10.4c0.1,0,0.2-0.1,0.2-0.2V4.7c0-0.1-0.1-0.2-0.2-0.2c-0.1,0-0.2,0.1-0.2,0.2v5.5
		C16.8,10.3,16.9,10.4,17.1,10.4z"/>
	<path class="st0" d="M8.9,7.6c0.1,0,0.2-0.1,0.2-0.2V3.3c0-0.1-0.1-0.2-0.2-0.2S8.6,3.2,8.6,3.3v4.1C8.6,7.5,8.7,7.6,8.9,7.6z"/>
	<path class="st0" d="M14.3,7.6c0.1,0,0.2-0.1,0.2-0.2V3.3c0-0.1-0.1-0.2-0.2-0.2s-0.2,0.1-0.2,0.2v4.1C14.1,7.5,14.2,7.6,14.3,7.6z
		"/>
	<path class="st0" d="M11.6,7.6c0.1,0,0.2-0.1,0.2-0.2V0.6c0-0.1-0.1-0.2-0.2-0.2c-0.1,0-0.2,0.1-0.2,0.2v6.8
		C11.4,7.5,11.5,7.6,11.6,7.6z"/>
</g>
</svg>
