<?xml version="1.0" encoding="utf-8"?>
<!-- Generator: Adobe Illustrator 22.0.1, SVG Export Plug-In . SVG Version: 6.00 Build 0)  -->
<svg version="1.1" id="Capa_1" xmlns="http://www.w3.org/2000/svg" xmlns:xlink="http://www.w3.org/1999/xlink" x="0px" y="0px"
	 viewBox="0 0 23.2 23.2" style="enable-background:new 0 0 23.2 23.2;" xml:space="preserve">
<style type="text/css">
	.st0{fill:#F7941D;}
</style>
<path class="st0" d="M19.1,15.6c-1.2-0.3-2-1.5-1.8-2.7c0.7-3.2-1.3-6.3-4.5-7s-6.3,1.3-7,4.5s1.3,6.3,4.5,7
	c2.6,0.6,5.1-0.6,6.3-2.8c0.4,0.9,1.2,1.6,2.2,1.9c1.7,0.4,3.3-0.7,3.7-2.3c0,0,0-0.1,0-0.1c0.6-3,0.1-6-1.5-8.5S17,1.2,14,0.5
	c-3-0.6-6-0.1-8.5,1.5c-2.5,1.6-4.3,4.2-5,7.1s-0.1,6,1.5,8.5c1.6,2.5,4.2,4.3,7.1,5c2,0.4,4,0.3,5.9-0.3c1.9-0.6,3.5-1.7,4.9-3.1
	c0.2-0.2,0.1-0.4,0-0.6c-0.2-0.2-0.4-0.1-0.6,0c-2.5,2.8-6.4,4-10,3.2c-5.7-1.2-9.3-6.8-8-12.5s6.8-9.3,12.5-8
	c5.6,1.2,9.2,6.8,8,12.4c0,0,0,0,0,0.1C21.6,15.1,20.3,15.9,19.1,15.6z M10.5,16.5c-2.7-0.6-4.4-3.3-3.8-6s3.3-4.4,6-3.8
	s4.4,3.3,3.8,6S13.2,17.1,10.5,16.5z"/>
</svg>
