<?xml version="1.0" encoding="utf-8"?>
<!-- Generator: Adobe Illustrator 22.0.1, SVG Export Plug-In . SVG Version: 6.00 Build 0)  -->
<svg version="1.1" id="Capa_1" xmlns="http://www.w3.org/2000/svg" xmlns:xlink="http://www.w3.org/1999/xlink" x="0px" y="0px"
	 viewBox="0 0 23.2 23.2" style="enable-background:new 0 0 23.2 23.2;" xml:space="preserve">
<style type="text/css">
	.st0{fill:#F7941D;}
</style>
<g>
	<path class="st0" d="M19.6,3.6c-2.1-2.1-5-3.3-8-3.3c-3,0-5.9,1.2-8,3.3c-2.1,2.1-3.3,5-3.3,8c0,3,1.2,5.9,3.3,8
		c2.1,2.1,5,3.3,8,3.3c3,0,5.9-1.2,8-3.3c2.1-2.1,3.3-5,3.3-8C22.9,8.6,21.8,5.7,19.6,3.6z M11.6,22.1c-5.8,0-10.5-4.7-10.5-10.5
		S5.8,1.1,11.6,1.1s10.5,4.7,10.5,10.5S17.4,22.1,11.6,22.1z"/>
	<path class="st0" d="M11.6,4.8c-1.9,0-3.4,1.5-3.4,3.4c0,0.1,0.1,0.2,0.2,0.2s0.2-0.1,0.2-0.2c0-1.6,1.3-2.9,3-2.9
		c1.6,0,2.9,1.3,2.9,2.9c0,0.7-0.6,1.3-1.2,2.1c-0.9,1.1-2,2.4-2,4.3c0,0.1,0.1,0.2,0.2,0.2s0.2-0.1,0.2-0.2c0-1.7,1-2.9,1.9-4
		C14.4,9.8,15,9.1,15,8.2C15,6.3,13.5,4.8,11.6,4.8z"/>
	<path class="st0" d="M11.6,17c-0.2,0-0.4,0.2-0.4,0.4s0.2,0.4,0.4,0.4s0.4-0.2,0.4-0.4S11.8,17,11.6,17z"/>
</g>
</svg>
