<?xml version="1.0" encoding="utf-8"?>
<!-- Generator: Adobe Illustrator 22.0.1, SVG Export Plug-In . SVG Version: 6.00 Build 0)  -->
<svg version="1.1" id="Capa_1" xmlns="http://www.w3.org/2000/svg" xmlns:xlink="http://www.w3.org/1999/xlink" x="0px" y="0px"
	 viewBox="0 0 23.2 23.2" style="enable-background:new 0 0 23.2 23.2;" xml:space="preserve">
<style type="text/css">
	.st0{fill:#F7941D;}
</style>
<g>
	<path class="st0" d="M14.3,21.4c0.1,0,0.2-0.1,0.2-0.2v-5.5c0-0.1-0.1-0.2-0.2-0.2H8.9c-0.1,0-0.2,0.1-0.2,0.2v5.5
		c0,0.1,0.1,0.2,0.2,0.2s0.2-0.1,0.2-0.2v-5.2h5v5.2C14.1,21.3,14.2,21.4,14.3,21.4z"/>
	<path class="st0" d="M22.9,7.5C22.9,7.5,22.9,7.5,22.9,7.5C22.9,7.5,22.9,7.5,22.9,7.5C22.9,7.4,22.9,7.4,22.9,7.5
		C22.9,7.4,22.9,7.4,22.9,7.5c0-0.1,0-0.1,0-0.1c0,0,0,0,0,0c0,0,0,0,0,0c0,0,0,0,0,0c0,0,0,0,0,0c0,0,0,0,0,0c0,0,0,0,0,0l-4.1-6.8
		c-0.1-0.1-0.2-0.2-0.4-0.2H4.8c-0.1,0-0.3,0.1-0.4,0.2L0.3,7.3c0,0,0,0,0,0c0,0,0,0,0,0c0,0,0,0,0,0c0,0,0,0,0,0c0,0,0,0,0,0
		c0,0,0,0,0,0c0,0,0,0,0,0c0,0,0,0,0,0c0,0,0,0,0,0c0,0,0,0,0,0c0,0,0,0,0,0c0,0,0,0,0,0v15c0,0.2,0.2,0.4,0.4,0.4h8.2
		c0.2,0,0.4-0.2,0.4-0.4c0-0.2-0.2-0.4-0.4-0.4H1.1V10.7c0.5,0.7,1.4,1.1,2.3,1.1c1.2,0,2.3-0.7,2.7-1.8c0.5,1.1,1.5,1.8,2.7,1.8
		s2.3-0.7,2.7-1.8c0.5,1.1,1.5,1.8,2.7,1.8c1.2,0,2.3-0.7,2.7-1.8c0.5,1.1,1.5,1.8,2.7,1.8c0.9,0,1.8-0.4,2.3-1.1v11.4h-7.8
		c-0.2,0-0.4,0.2-0.4,0.4c0,0.2,0.2,0.4,0.4,0.4h8.2c0.2,0,0.4-0.2,0.4-0.4L22.9,7.5C22.9,7.5,22.9,7.5,22.9,7.5z M21.9,7.3h-4.6
		L16,1.1h2.2L21.9,7.3z M11.4,1.1v6.2H6.4l1.2-6.2H11.4z M11.8,1.1h3.7l1.2,6.2h-4.9V1.1z M5,1.1h2.2L5.9,7.3H1.3L5,1.1z M3.4,11.4
		c-1,0-1.9-0.6-2.3-1.6V7.7h4.8v1.1C5.9,10.2,4.8,11.4,3.4,11.4z M8.9,11.4c-1.4,0-2.5-1.1-2.5-2.5V7.7h5v1.1
		C11.4,10.2,10.2,11.4,8.9,11.4z M14.3,11.4L14.3,11.4c-1.4,0-2.5-1.1-2.5-2.5V7.7h5v1.1C16.8,10.2,15.7,11.4,14.3,11.4z M19.8,11.4
		c-1.4,0-2.5-1.1-2.5-2.5V7.7h4.8v2.1C21.7,10.7,20.8,11.4,19.8,11.4z"/>
</g>
</svg>
