<?xml version="1.0" encoding="utf-8"?>
<!-- Generator: Adobe Illustrator 22.0.1, SVG Export Plug-In . SVG Version: 6.00 Build 0)  -->
<svg version="1.1" id="Capa_1" xmlns="http://www.w3.org/2000/svg" xmlns:xlink="http://www.w3.org/1999/xlink" x="0px" y="0px"
	 viewBox="0 0 23.2 23.2" style="enable-background:new 0 0 23.2 23.2;" xml:space="preserve">
<style type="text/css">
	.st0{fill:#F7941D;}
</style>
<g>
	<path class="st0" d="M22.9,7.5C22.9,7.5,22.9,7.4,22.9,7.5C22.9,7.4,22.9,7.4,22.9,7.5C22.9,7.4,22.9,7.4,22.9,7.5
		c0-0.1,0-0.1,0-0.1c0,0,0,0,0,0c0,0,0,0,0,0c0,0,0,0,0,0c0,0,0,0,0,0c0,0,0,0,0,0c0,0,0,0,0,0c0,0,0,0,0,0c0,0,0,0,0,0c0,0,0,0,0,0
		c0,0,0,0,0,0c0,0,0,0,0,0L11.8,0.3c-0.1-0.1-0.3-0.1-0.4,0L0.5,7.2c0,0,0,0,0,0c0,0,0,0,0,0c0,0,0,0,0,0c0,0,0,0,0,0c0,0,0,0,0,0
		c0,0,0,0,0,0c0,0,0,0,0,0c0,0,0,0,0,0c0,0,0,0,0,0c0,0,0,0,0,0c0,0,0,0,0,0c0,0,0,0,0,0c0,0,0,0,0,0c0,0,0,0,0,0c0,0,0,0,0,0
		c0,0,0,0,0,0v8.2c0,0.2,0.2,0.4,0.4,0.4s0.4-0.2,0.4-0.4V8.3l10.1,6.3v8c0,0.2,0.2,0.4,0.4,0.4c0.2,0,0.4-0.2,0.4-0.4v-8l10.1-6.3
		v7.4c0,0.2,0.2,0.4,0.4,0.4c0.2,0,0.4-0.2,0.4-0.4L22.9,7.5C22.9,7.5,22.9,7.5,22.9,7.5z M11.6,13.8L1.5,7.5l10.1-6.3l10.1,6.3
		L11.6,13.8z"/>
	<path class="st0" d="M7.6,8.7c-0.1-0.1-0.3,0-0.3,0.1C7.2,8.8,7.3,9,7.4,9.1l4.1,2.7c0,0,0.1,0,0.1,0c0,0,0.1,0,0.1,0l4.1-2.7
		C15.9,9,16,8.8,15.9,8.7c-0.1-0.1-0.2-0.1-0.3-0.1l-4,2.6L7.6,8.7z"/>
</g>
</svg>
