<?xml version="1.0" encoding="utf-8"?>
<!-- Generator: Adobe Illustrator 22.0.1, SVG Export Plug-In . SVG Version: 6.00 Build 0)  -->
<svg version="1.1" id="Capa_1" xmlns="http://www.w3.org/2000/svg" xmlns:xlink="http://www.w3.org/1999/xlink" x="0px" y="0px"
	 viewBox="0 0 23.2 23.2" style="enable-background:new 0 0 23.2 23.2;" xml:space="preserve">
<style type="text/css">
	.st0{fill:#F7941D;}
</style>
<g>
	<path class="st0" d="M12.7,13c0,0,0.1,0,0.1,0c0,0,0.1,0,0.1,0c0.1,0,0.1-0.1,0.1-0.2v-2.4c0-0.1,0-0.2-0.1-0.2c-0.1,0-0.2,0-0.2,0
		l-2.3,1.2l-2.3-1.2c-0.1,0-0.2,0-0.2,0c-0.1,0-0.1,0.1-0.1,0.2v2.4c0,0.1,0,0.2,0.1,0.2c0.1,0,0.2,0,0.2,0l2.3-1.2L12.7,13z
		 M12.6,10.8v1.7l-1.7-0.8L12.6,10.8z M8.2,12.4v-1.7l1.7,0.8L8.2,12.4z"/>
	<path class="st0" d="M10.4,13.8c-0.1,0-0.2,0.1-0.2,0.2c0,0.1,0.1,0.2,0.2,0.2c0.1,0,0.2-0.1,0.2-0.2
		C10.6,13.9,10.5,13.8,10.4,13.8z"/>
	<circle class="st0" cx="10.4" cy="18.9" r="0.2"/>
	<path class="st0" d="M21.3,14.8h-1.6c-0.8-1.7-2-3.2-3.6-4.3C15,9.8,13.9,9.3,12.6,9C14.1,8.2,15,6.7,15,4.9c0-2.6-2.1-4.7-4.7-4.7
		c-2.6,0-4.7,2.1-4.7,4.7c0,1.8,1,3.3,2.4,4.1c-4.5,1-7.9,5.1-7.9,9.9v1.2c0,0.2,0.2,0.4,0.4,0.4h10.5v2c0,0.2,0.2,0.4,0.4,0.4
		c0.2,0,0.4-0.2,0.4-0.4v-4.4h1.6v4.4c0,0.2,0.2,0.4,0.4,0.4c0.2,0,0.4-0.2,0.4-0.4v-6.1c0-0.3-0.1-0.6-0.2-0.8h5.1c0,0,0,0,0,0h1.9
		c0.4,0,0.8,0.4,0.8,0.8v6.1c0,0.2,0.2,0.4,0.4,0.4c0.2,0,0.4-0.2,0.4-0.4v-6.1C22.9,15.6,22.2,14.8,21.3,14.8z M6.6,4.9
		c0-2.1,1.7-3.8,3.8-3.8c2.1,0,3.8,1.7,3.8,3.8s-1.7,3.8-3.8,3.8C8.3,8.8,6.6,7,6.6,4.9z M1.1,19.7v-0.8c0-5.1,4.2-9.3,9.3-9.3
		c3.6,0,6.8,2,8.4,5.2H14h-1.2h-1.2c-0.9,0-1.6,0.7-1.6,1.6c0,0.8,0.5,1.4,1.2,1.6v1.6H1.1z M11.6,17.2c-0.4,0-0.8-0.4-0.8-0.8
		c0-0.4,0.4-0.8,0.8-0.8h1.2c0.4,0,0.8,0.4,0.8,0.8v0.8H11.6z"/>
</g>
</svg>
