<?xml version="1.0" encoding="utf-8"?>
<!-- Generator: Adobe Illustrator 22.0.1, SVG Export Plug-In . SVG Version: 6.00 Build 0)  -->
<svg version="1.1" id="Capa_1" xmlns="http://www.w3.org/2000/svg" xmlns:xlink="http://www.w3.org/1999/xlink" x="0px" y="0px"
	 viewBox="0 0 345.2 78" style="enable-background:new 0 0 345.2 78;" xml:space="preserve">
<style type="text/css">
	.st0{fill:#453569;}
	.st1{fill:#FFFFFF;}
	.st2{fill:#EAEAEA;}
	.st3{fill:#DA8E22;}
	.st4{fill:#A2BF38;}
	.st5{fill:#99332B;}
	.st6{fill:#69A7D4;}
</style>
<g>
	<path class="st0" d="M29.9,25.8h32.2c1.1,0,1.8,0,2.3,0c0.5,0,1.1-0.2,1.8-0.5c0.7-0.2,1.4-0.7,1.6-1.1c0.5-0.5,0.7-1.1,0.9-2.1
		c0.2-0.9,0.5-2.1,0.5-3.4c0-1.8-0.2-3.2-0.5-4.1c-0.2-1.1-0.9-1.8-1.8-2.3c-0.5-0.5-1.4-0.7-1.8-0.7c-0.7,0-1.6-0.2-2.7-0.2H29.9
		c-0.5,0-0.7,0-1.1,0C27.4,11.4,29.9,25.8,29.9,25.8z"/>
	<path class="st0" d="M59.4,37.2c-0.2-1.1-0.9-1.8-1.8-2.3c-0.9-0.5-1.6-0.7-2.1-0.7c-0.7,0-1.6-0.2-2.7-0.2H37.2V18.7
		c0-1.1,0-1.8,0-2.3s-0.2-1.1-0.5-1.8c-0.2-0.7-0.7-1.4-1.1-1.6c-0.5-0.5-1.1-0.7-2.1-0.9s-2.1-0.5-3.4-0.5c-1.8,0-3.2,0.2-4.1,0.5
		c-1.1,0.2-1.8,0.9-2.3,1.8c-0.5,0.9-0.7,1.6-0.7,2.1c0,0.7-0.2,1.6-0.2,2.7v15.5H7.1c-1.1,0-1.8,0-2.3,0S3.7,34.5,3,34.7
		c-0.7,0.2-1.4,0.7-1.6,1.1c-0.5,0.5-0.7,1.1-0.9,2.1S0,39.9,0,41.3c0,1.8,0.2,3.2,0.5,4.1c0.2,1.1,0.9,1.8,1.8,2.3s1.6,0.7,2.1,0.7
		c0.7,0,1.6,0.2,3,0.2h15.5v15.5c0,1.1,0,1.8,0,2.3c0,0.5,0.2,1.1,0.5,1.8c0.2,0.7,0.7,1.4,1.1,1.6c0.5,0.5,1.1,0.7,2.1,0.9
		c0.9,0.2,2.1,0.5,3.4,0.5c1.8,0,3.2-0.2,4.1-0.5c1.1-0.2,1.8-0.9,2.3-1.8c0.5-0.9,0.7-1.6,0.7-2.1c0-0.7,0.2-1.6,0.2-3V48.4h15.5
		c1.1,0,1.8,0,2.3,0s1.1-0.2,1.8-0.5c0.7-0.2,1.4-0.7,1.6-1.1c0.5-0.5,0.7-1.1,0.9-2.1c0.2-0.9,0.5-2.1,0.5-3.4
		C59.8,39.7,59.6,38.3,59.4,37.2z"/>
	<path class="st1" d="M29.9,20.5h32.2c1.1,0,1.8,0,2.3,0c0.5,0,1.1-0.2,1.8-0.5c0.7-0.2,1.4-0.7,1.6-1.1c0.5-0.5,0.7-1.1,0.9-2.1
		c0.2-0.9,0.5-2.1,0.5-3.4c0-1.8-0.2-3.2-0.5-4.1c-0.2-1.1-0.9-1.8-1.8-2.3s-1.6-0.7-2.1-0.7c-0.7,0-1.6-0.2-2.7-0.2H29.9
		c-0.5,0-0.7,0-1.1,0C27.4,6.2,29.9,20.5,29.9,20.5z"/>
	<path class="st0" d="M120.5,61.2c0.9,2.1,1.1,3.4,1.1,4.3c0,2.1-1.6,3.9-5,5.3c-1.8,0.7-3.2,1.1-4.3,1.1c-0.9,0-1.8-0.2-2.5-0.7
		c-0.7-0.5-1.1-1.1-1.4-1.6c-0.2-0.5-0.7-1.4-1.1-2.5c-1.1-2.7-3-6.8-5.3-12.3L99.5,55H89.3v9.1c0,1.1,0,2.3-0.2,2.7
		c0,0.7-0.2,1.4-0.7,2.1c-0.5,0.9-1.1,1.4-2.3,1.8c-1.1,0.5-2.5,0.5-4.1,0.5c-1.4,0-2.5-0.2-3.4-0.5s-1.6-0.7-2.1-0.9
		c-0.5-0.5-0.9-0.9-1.1-1.6c-0.2-0.7-0.5-1.4-0.5-1.8c0-0.5,0-1.4,0-2.3V18.7c0-1.1,0-2.3,0.2-2.7c0-0.7,0.2-1.4,0.7-2.1
		c0.5-0.9,1.1-1.4,2.3-1.8c1.1-0.2,2.5-0.5,4.1-0.5h17.6c2.3,0,4.6,0.5,7.1,1.4s4.8,2.3,6.8,3.9c2.3,1.6,3.9,3.9,5.5,6.8
		c1.4,3,2.1,6.2,2.1,9.6c0,6.2-2.1,11.2-6.2,15.3C116.2,51.4,118,55.5,120.5,61.2z M89.3,40.4h10.5c1.6,0,3.2-0.7,4.8-1.8
		c1.6-1.1,2.3-3,2.3-5.5c0-2.3-0.7-4.1-2.3-5.3c-1.6-1.1-3.2-1.8-4.8-1.8H89.5v14.4H89.3z"/>
	<path class="st0" d="M126.3,18.7c0-1.1,0-2.3,0.2-2.7c0-0.7,0.2-1.4,0.7-2.1c0.5-0.9,1.1-1.4,2.3-1.8c1.1-0.2,2.5-0.5,4.1-0.5
		c1.4,0,2.5,0.2,3.4,0.5c0.9,0.2,1.6,0.7,2.1,0.9c0.5,0.5,0.9,0.9,1.1,1.6c0.2,0.7,0.5,1.4,0.5,1.8c0,0.5,0,1.4,0,2.3v45.4
		c0,1.4,0,2.3-0.2,3c0,0.7-0.2,1.4-0.7,2.1c-0.5,0.9-1.1,1.4-2.3,1.8c-1.1,0.2-2.5,0.5-4.1,0.5c-1.4,0-2.5-0.2-3.4-0.5
		c-0.9-0.2-1.6-0.7-2.1-0.9c-0.5-0.5-0.9-0.9-1.1-1.6c-0.2-0.7-0.5-1.4-0.5-1.8s0-1.4,0-2.3V18.7z"/>
	<path class="st0" d="M173.1,41.3c8.4,8,14.2,14.2,17.8,18c1.8,2.1,2.7,3.7,2.7,4.8c0,1.6-1.1,3.4-3.4,5.5c-2.1,1.8-3.9,2.5-5.3,2.5
		c-1.4,0-3-1.1-5-3.4l-18-20.5v16c0,1.4,0,2.3-0.2,3c0,0.7-0.2,1.4-0.7,2.1c-0.5,0.9-1.1,1.4-2.3,1.8c-1.1,0.2-2.5,0.5-4.1,0.5
		c-1.4,0-2.5-0.2-3.4-0.5c-0.9-0.2-1.6-0.7-2.1-0.9c-0.5-0.5-0.9-0.9-1.1-1.6s-0.5-1.4-0.5-1.8s0-1.4,0-2.3V18.7
		c0-1.1,0-2.3,0.2-2.7c0-0.7,0.2-1.4,0.7-2.1c0.5-0.9,1.1-1.4,2.3-1.8c1.1-0.2,2.5-0.5,4.1-0.5c1.4,0,2.5,0.2,3.4,0.5
		c0.9,0.2,1.6,0.7,2.1,0.9c0.5,0.5,0.9,0.9,1.1,1.6c0.2,0.7,0.5,1.4,0.5,1.8c0,0.5,0,1.4,0,2.3v15.5c7.3-8.4,13.5-15.3,18-20.5
		c1.8-2.3,3.7-3.4,5-3.4c1.4,0,3.2,0.9,5.3,2.5c2.3,2.1,3.4,3.9,3.4,5.5c0,1.1-0.9,2.7-2.7,4.8c-1.6,1.8-3.9,4.1-6.8,7.3
		c-3,3-5.5,5.5-7.8,7.8L173.1,41.3z"/>
	<path class="st0" d="M214.2,56.8h25.1c1.1,0,2.3,0,2.7,0.2c0.7,0,1.4,0.2,2.1,0.7c0.9,0.5,1.4,1.1,1.8,2.3c0.2,1.1,0.5,2.5,0.5,4.1
		c0,1.4-0.2,2.5-0.5,3.4c-0.2,0.9-0.7,1.6-0.9,2.1c-0.5,0.5-0.9,0.9-1.6,1.1c-0.7,0.2-1.4,0.5-1.8,0.5c-0.5,0-1.4,0-2.3,0h-32.4
		c-1.4,0-2.5-0.2-3.4-0.5c-0.9-0.2-1.6-0.7-2.1-0.9c-0.5-0.5-0.9-0.9-1.1-1.6s-0.5-1.4-0.5-1.8c0-0.5,0-1.4,0-2.3V18.7
		c0-2.7,0.5-4.6,1.6-5.7c1.1-0.9,3-1.6,5.9-1.6h32.2c1.1,0,2.3,0,2.7,0.2c0.7,0,1.4,0.2,2.1,0.7c0.9,0.5,1.4,1.1,1.8,2.3
		c0.2,1.1,0.5,2.5,0.5,4.1c0,1.4-0.2,2.5-0.5,3.4c-0.2,0.9-0.7,1.6-0.9,2.1c-0.5,0.5-0.9,0.9-1.6,1.1c-0.7,0.2-1.4,0.5-1.8,0.5
		c-0.5,0-1.4,0-2.3,0h-25.1V34h16.2c1.1,0,2.3,0,2.7,0.2c0.7,0,1.4,0.2,2.1,0.7c0.9,0.5,1.4,1.1,1.8,2.3c0.2,1.1,0.5,2.5,0.5,4.1
		c0,1.4-0.2,2.5-0.5,3.4c-0.2,0.9-0.7,1.6-0.9,2.1c-0.5,0.5-0.9,0.9-1.8,1.1c-0.7,0.2-1.4,0.5-1.8,0.5c-0.5,0-1.4,0-2.3,0h-16v8.4
		H214.2z"/>
	<path class="st0" d="M297.7,61.2c0.9,2.1,1.1,3.4,1.1,4.3c0,2.1-1.6,3.9-5,5.3c-1.8,0.7-3.2,1.1-4.3,1.1c-0.9,0-1.8-0.2-2.5-0.7
		c-0.7-0.5-1.1-1.1-1.4-1.6c-0.2-0.5-0.7-1.4-1.1-2.5c-1.1-2.7-3-6.8-5.3-12.3l-2.5,0.2h-10.3v9.1c0,1.1,0,2.3-0.2,2.7
		c0,0.7-0.2,1.4-0.7,2.1c-0.5,0.9-1.1,1.4-2.3,1.8c-1.1,0.2-2.5,0.5-4.1,0.5c-1.4,0-2.5-0.2-3.4-0.5s-1.6-0.7-2.1-0.9
		c-0.5-0.5-0.9-0.9-1.1-1.6s-0.5-1.4-0.5-1.8c0-0.5,0-1.4,0-2.3V18.7c0-1.1,0-2.3,0.2-2.7c0-0.7,0.2-1.4,0.7-2.1
		c0.5-0.9,1.1-1.4,2.3-1.8c1.1-0.2,2.5-0.5,4.1-0.5h17.6c2.3,0,4.6,0.5,7.1,1.4c2.5,0.9,4.8,2.3,6.8,3.9c2.3,1.6,3.9,3.9,5.5,6.8
		c1.4,3,2.1,6.2,2.1,9.6c0,6.2-2.1,11.2-6.2,15.3C293.4,51.4,295.2,55.5,297.7,61.2z M266.2,40.4h10.5c1.6,0,3.2-0.7,4.8-1.8
		c1.6-1.1,2.3-3,2.3-5.5c0-2.3-0.7-4.1-2.3-5.3s-3.2-1.8-4.8-1.8h-10.3v14.4H266.2z"/>
	<path class="st0" d="M303.4,63c-1.4-1.8-2.1-3.2-2.1-4.3c0-1.6,1.1-3.7,3.4-5.9c1.4-1.4,2.7-2.1,4.1-2.1c1.6,0,3.7,1.1,6.2,3.7
		l0.5,0.5c0.2,0.2,0.5,0.7,0.9,1.1s1.4,0.9,2.5,1.8c1.1,0.7,2.5,1.1,3.7,1.1c5,0,7.5-2.1,7.5-6.2c0-1.1-0.7-2.3-2.1-3.2
		c-1.4-0.9-3.2-1.4-5.3-1.8c-2.1-0.5-4.3-0.9-6.6-1.8c-2.5-0.9-4.6-1.8-6.6-3c-2.1-1.1-3.9-3-5.3-5.5s-2.1-5.5-2.1-8.9
		c0-4.8,1.8-8.9,5.3-12.6c3.7-3.7,8.4-5.3,14.6-5.3c3.2,0,6.2,0.5,8.9,1.4c2.7,0.9,4.6,1.6,5.7,2.5l1.6,1.1l0.5,0.2
		c1.6,1.6,2.5,3,2.5,3.9c0,1.1-0.7,2.7-2.1,4.6c-1.8,2.7-3.7,4.1-5.7,4.1c-1.1,0-2.5-0.5-4.3-1.6c-0.2,0-0.5-0.5-0.9-0.9
		c-0.5-0.5-0.9-0.7-1.4-0.9c-0.5-0.2-0.9-0.5-1.8-0.7c-0.9-0.2-2.1-0.5-3.2-0.5c-1.4,0-2.5,0.5-3.7,1.4c-1.1,0.9-1.8,2.1-1.8,3.4
		c0,1.6,0.7,3,2.1,3.9s3.2,1.6,5.3,1.8c2.1,0.2,4.3,0.9,6.8,1.6c2.5,0.7,4.8,1.6,6.8,2.5s3.9,2.7,5.3,5c1.4,2.5,2.1,5.5,2.1,9.1
		c0,3.4-0.7,6.6-2.1,9.4c-1.4,2.7-3.2,4.8-5.5,6.2c-2.3,1.4-4.6,2.5-7.1,3.2c-2.5,0.7-4.8,1.1-7.3,1.1s-5-0.2-7.3-0.9
		c-2.3-0.7-4.1-1.4-5.7-2.3c-1.4-0.9-2.7-1.8-3.7-2.7c-1.1-0.9-1.8-1.8-2.3-2.3L303.4,63z"/>
	<circle class="st0" cx="29.7" cy="19.4" r="4.8"/>
	<path class="st1" d="M120.5,55.9c0.9,2.1,1.1,3.4,1.1,4.3c0,2.1-1.6,3.9-5,5.3c-1.8,0.7-3.2,1.1-4.3,1.1c-0.9,0-1.8-0.2-2.5-0.7
		c-0.7-0.5-1.1-1.1-1.4-1.6c-0.2-0.5-0.7-1.4-1.1-2.5c-1.1-2.7-3-6.8-5.3-12.3l-2.5,0.2H89.3v9.1c0,1.1,0,2.3-0.2,2.7
		c0,0.7-0.2,1.4-0.7,2.1c-0.5,0.9-1.1,1.4-2.3,1.8C84.9,65.7,83.6,66,82,66c-1.4,0-2.5-0.2-3.4-0.5s-1.6-0.7-2.1-0.9
		c-0.5-0.5-0.9-0.9-1.1-1.6c-0.2-0.7-0.5-1.4-0.5-1.8c0-0.5,0-1.4,0-2.3V13.5c0-1.1,0-2.3,0.2-2.7c0-0.7,0.2-1.4,0.7-2.1
		c0.5-0.9,1.1-1.4,2.3-1.8c1.1-0.2,2.5-0.5,4.1-0.5h17.6c2.3,0,4.6,0.5,7.1,1.4s4.8,2.3,6.8,3.9c2.3,1.6,3.9,3.9,5.5,6.8
		c1.4,3,2.1,6.2,2.1,9.6c0,6.2-2.1,11.2-6.2,15.3C116.2,46.1,118,50.2,120.5,55.9z M89.3,35.1h10.5c1.6,0,3.2-0.7,4.8-1.8
		s2.3-3,2.3-5.5c0-2.3-0.7-4.1-2.3-5.3c-1.6-1.1-3.2-1.8-4.8-1.8H89.5v14.4H89.3z"/>
	<path class="st1" d="M126.3,13.5c0-1.1,0-2.3,0.2-2.7c0-0.7,0.2-1.4,0.7-2.1c0.5-0.9,1.1-1.4,2.3-1.8c1.1-0.2,2.5-0.5,4.1-0.5
		c1.4,0,2.5,0.2,3.4,0.5c0.9,0.2,1.6,0.7,2.1,0.9c0.5,0.5,0.9,0.9,1.1,1.6c0.2,0.7,0.5,1.4,0.5,1.8c0,0.5,0,1.4,0,2.3v45.4
		c0,1.4,0,2.3-0.2,3c0,0.7-0.2,1.4-0.7,2.1c-0.5,0.9-1.1,1.4-2.3,1.8c-1.1,0.2-2.5,0.5-4.1,0.5c-1.4,0-2.5-0.2-3.4-0.5
		c-0.9-0.2-1.6-0.7-2.1-0.9c-0.5-0.5-0.9-0.9-1.1-1.6c-0.2-0.7-0.5-1.4-0.5-1.8c0-0.5,0-1.4,0-2.3V13.5z"/>
	<path class="st1" d="M173.1,36.1c8.4,8,14.2,14.2,17.8,18c1.8,2.1,2.7,3.7,2.7,4.8c0,1.6-1.1,3.4-3.4,5.5c-2.1,1.8-3.9,2.5-5.3,2.5
		c-1.4,0-3-1.1-5-3.4l-18-20.5v16c0,1.4,0,2.3-0.2,3c0,0.7-0.2,1.4-0.7,2.1c-0.5,0.9-1.1,1.4-2.3,1.8c-1.1,0.2-2.5,0.5-4.1,0.5
		c-1.4,0-2.5-0.2-3.4-0.5c-0.9-0.2-1.6-0.7-2.1-0.9c-0.5-0.5-0.9-0.9-1.1-1.6s-0.5-1.4-0.5-1.8c0-0.5,0-1.4,0-2.3V13.5
		c0-1.1,0-2.3,0.2-2.7c0-0.7,0.2-1.4,0.7-2.1c0.5-0.9,1.1-1.4,2.3-1.8c1.1-0.2,2.5-0.5,4.1-0.5c1.4,0,2.5,0.2,3.4,0.5
		c0.9,0.2,1.6,0.7,2.1,0.9c0.5,0.5,0.9,0.9,1.1,1.6c0.2,0.7,0.5,1.4,0.5,1.8c0,0.5,0,1.4,0,2.3V29c7.3-8.4,13.5-15.3,18-20.5
		c1.8-2.3,3.7-3.4,5-3.4c1.4,0,3.2,0.9,5.3,2.5c2.3,2.1,3.4,3.9,3.4,5.5c0,1.1-0.9,2.7-2.7,4.8c-1.6,1.8-3.9,4.1-6.8,7.3
		c-3,3-5.5,5.5-7.8,7.8L173.1,36.1z"/>
	<path class="st1" d="M214.2,51.6h25.1c1.1,0,2.3,0,2.7,0.2c0.7,0,1.4,0.2,2.1,0.7c0.9,0.5,1.4,1.1,1.8,2.3c0.2,1.1,0.5,2.5,0.5,4.1
		c0,1.4-0.2,2.5-0.5,3.4s-0.7,1.6-0.9,2.1c-0.5,0.5-0.9,0.9-1.6,1.1c-0.7,0.2-1.4,0.5-1.8,0.5c-0.5,0-1.4,0-2.3,0h-32.4
		c-1.4,0-2.5-0.2-3.4-0.5c-0.9-0.2-1.6-0.7-2.1-0.9c-0.5-0.5-0.9-0.9-1.1-1.6c-0.2-0.7-0.5-1.4-0.5-1.8c0-0.5,0-1.4,0-2.3V13.5
		c0-2.7,0.5-4.6,1.6-5.7c1.1-0.9,3-1.6,5.9-1.6h32.2c1.1,0,2.3,0,2.7,0.2c0.7,0,1.4,0.2,2.1,0.7c0.9,0.5,1.4,1.1,1.8,2.3
		c0.2,1.1,0.5,2.5,0.5,4.1c0,1.4-0.2,2.5-0.5,3.4c-0.2,0.9-0.7,1.6-0.9,2.1c-0.5,0.5-0.9,0.9-1.6,1.1c-0.7,0.2-1.4,0.5-1.8,0.5
		c-0.5,0-1.4,0-2.3,0h-25.1v8.2h16.2c1.1,0,2.3,0,2.7,0.2c0.7,0,1.4,0.2,2.1,0.7c0.9,0.5,1.4,1.1,1.8,2.3c0.2,1.1,0.5,2.5,0.5,4.1
		c0,1.4-0.2,2.5-0.5,3.4c-0.2,0.9-0.7,1.6-0.9,2.1c-0.5,0.5-0.9,0.9-1.8,1.1c-0.7,0.2-1.4,0.5-1.8,0.5c-0.5,0-1.4,0-2.3,0h-16v8.4
		H214.2z"/>
	<path class="st1" d="M297.7,55.9c0.9,2.1,1.1,3.4,1.1,4.3c0,2.1-1.6,3.9-5,5.3c-1.8,0.7-3.2,1.1-4.3,1.1c-0.9,0-1.8-0.2-2.5-0.7
		c-0.7-0.5-1.1-1.1-1.4-1.6c-0.2-0.5-0.7-1.4-1.1-2.5c-1.1-2.7-3-6.8-5.3-12.3l-2.5,0.2h-10.3v9.1c0,1.1,0,2.3-0.2,2.7
		c0,0.7-0.2,1.4-0.7,2.1c-0.5,0.9-1.1,1.4-2.3,1.8c-1.1,0.2-2.5,0.5-4.1,0.5c-1.4,0-2.5-0.2-3.4-0.5s-1.6-0.7-2.1-0.9
		c-0.5-0.2-0.9-0.9-1.1-1.6c-0.2-0.7-0.5-1.4-0.5-1.8c0-0.5,0-1.4,0-2.3V13.5c0-1.1,0-2.3,0.2-2.7c0-0.7,0.2-1.4,0.7-2.1
		c0.5-0.9,1.1-1.4,2.3-1.8c1.1-0.2,2.5-0.5,4.1-0.5h17.6c2.3,0,4.6,0.5,7.1,1.4c2.5,0.9,4.8,2.3,6.8,3.9c2.3,1.6,3.9,3.9,5.5,6.8
		c1.4,3,2.1,6.2,2.1,9.6c0,6.2-2.1,11.2-6.2,15.3C293.4,46.1,295.2,50.2,297.7,55.9z M266.2,35.1h10.5c1.6,0,3.2-0.7,4.8-1.8
		s2.3-3,2.3-5.5c0-2.3-0.7-4.1-2.3-5.3s-3.2-1.8-4.8-1.8h-10.3v14.4H266.2z"/>
	<path class="st1" d="M303.4,57.7c-1.4-1.8-2.1-3.2-2.1-4.3c0-1.6,1.1-3.7,3.4-5.9c1.4-1.4,2.7-2.1,4.1-2.1c1.6,0,3.7,1.1,6.2,3.7
		l0.5,0.5c0.2,0.2,0.5,0.7,0.9,1.1s1.4,0.9,2.5,1.8c1.1,0.7,2.5,1.1,3.7,1.1c5,0,7.5-2.1,7.5-6.2c0-1.1-0.7-2.3-2.1-3.2
		c-1.4-0.9-3.2-1.4-5.3-1.8c-2.1-0.5-4.3-0.9-6.6-1.8c-2.5-0.9-4.6-1.8-6.6-3c-2.1-1.1-3.9-3-5.3-5.5s-2.1-5.5-2.1-8.9
		c0-4.8,1.8-8.9,5.3-12.6c3.7-3.7,8.4-5.3,14.6-5.3c3.2,0,6.2,0.5,8.9,1.4c2.7,0.9,4.6,1.6,5.7,2.5l1.6,1.1l0.5,0.2
		c1.6,1.6,2.5,3,2.5,3.9c0,1.1-0.7,2.7-2.1,4.6c-1.8,2.7-3.7,4.1-5.7,4.1c-1.1,0-2.5-0.5-4.3-1.6c-0.2,0-0.5-0.5-0.9-0.9
		s-0.9-0.7-1.4-0.9c-0.5-0.2-0.9-0.5-1.8-0.7c-0.7-0.5-1.6-0.5-2.7-0.5c-1.4,0-2.5,0.5-3.7,1.4c-1.1,0.9-1.8,2.1-1.8,3.4
		c0,1.6,0.7,3,2.1,3.9c1.4,0.9,3.2,1.6,5.3,1.8c2.1,0.2,4.3,0.9,6.8,1.6s4.8,1.6,6.8,2.5c2.1,0.9,3.9,2.7,5.3,5
		c1.4,2.5,2.1,5.5,2.1,9.1c0,3.4-0.7,6.6-2.1,9.4c-1.4,2.7-3.2,4.8-5.5,6.2c-2.3,1.4-4.6,2.5-7.1,3.2c-2.5,0.7-4.8,1.1-7.3,1.1
		c-2.5,0-5-0.2-7.3-0.9c-2.3-0.7-4.1-1.4-5.7-2.3c-1.4-0.9-2.7-1.8-3.7-2.7c-1.1-0.9-1.8-1.8-2.3-2.3L303.4,57.7z"/>
	<path class="st2" d="M59.4,32c-0.2-1.1-0.9-1.8-1.8-2.3c-0.9-0.5-1.6-0.7-2.1-0.7c-0.7,0-1.6-0.2-2.7-0.2H37.2V13.5
		c0-1.1,0-1.8,0-2.3S37,10,36.8,9.3c-0.2-0.7-0.7-1.4-1.1-1.6c-0.5-0.5-1.1-0.7-2.1-0.9c-0.9-0.2-2.1-0.5-3.4-0.5
		c-1.8,0-3.2,0.2-4.1,0.5c-1.1,0.2-1.8,0.9-2.3,1.8c-0.5,0.9-0.7,1.6-0.7,2.1c0,0.7-0.2,1.6-0.2,2.7V29H7.1c-1.1,0-1.8,0-2.3,0
		S3.7,29.2,3,29.4c-0.7,0.2-1.4,0.7-1.6,1.1c-0.5,0.5-0.7,1.1-0.9,2.1S0,34.7,0,36.1c0,1.8,0.2,3.2,0.5,4.1c0.2,1.1,0.9,1.8,1.8,2.3
		s1.6,0.7,2.1,0.7c0.7,0,1.6,0.2,3,0.2h15.5v15.5c0,1.1,0,1.8,0,2.3s0.2,1.1,0.5,1.8c0.2,0.7,0.7,1.4,1.1,1.6
		c0.5,0.5,1.1,0.7,2.1,0.9s2.1,0.5,3.4,0.5c1.8,0,3.2-0.2,4.1-0.5c1.1-0.2,1.8-0.9,2.3-1.8c0.5-0.9,0.7-1.6,0.7-2.1
		c0-0.7,0.2-1.6,0.2-3V43.1h15.5c1.1,0,1.8,0,2.3,0s1.1-0.2,1.8-0.5c0.7-0.2,1.4-0.7,1.6-1.1c0.5-0.5,0.7-1.1,0.9-2.1
		c0.2-0.9,0.5-2.1,0.5-3.4C59.8,34.5,59.6,33.1,59.4,32z"/>
	<circle class="st3" cx="29.7" cy="14.1" r="4.8"/>
	<circle class="st4" cx="29.7" cy="58.7" r="4.8"/>
	<circle class="st5" cx="52.1" cy="36.3" r="4.8"/>
	<circle class="st6" cx="7.5" cy="36.3" r="4.8"/>
</g>
</svg>
